<?xml version="1.0" encoding="utf-8"?>
<svg xmlns="http://www.w3.org/2000/svg" viewBox="0 0 30 30" width="480" height="480">
  <path d="M10.166016 6.9335938C9.874125 6.9056562 9.5785313 7.0081563 9.3632812 7.2226562L2.2929688 14.292969C1.9019687 14.683969 1.9019687 15.316031 2.2929688 15.707031L9.3632812 22.777344C9.5542813 22.968344 9.8103125 23.070312 10.070312 23.070312C10.199312 23.070312 10.329125 23.047094 10.453125 22.996094C10.827125 22.842094 11.070312 22.476266 11.070312 22.072266L11.070312 18L26.070312 18C27.175313 18 28.070312 17.105 28.070312 16L28.070312 14C28.070312 12.895 27.175313 12 26.070312 12L11.070312 12L11.070312 7.9296875C11.070312 7.5256875 10.827125 7.1598594 10.453125 7.0058594C10.359625 6.9668594 10.263312 6.9429063 10.166016 6.9335938 z" />
</svg>