<?xml version="1.0" encoding="utf-8"?>
<svg xmlns="http://www.w3.org/2000/svg" x="0" y="0" viewBox="0 0 64 64" width="512" height="512">
  <linearGradient id="SVGID_1_" x1="26" x2="26" y1="790.062" y2="785.867" gradientTransform="matrix(1 0 0 -1 0 822)" gradientUnits="userSpaceOnUse">
    <stop offset="0" stop-color="#6dc7ff" />
    <stop offset="1" stop-color="#e6abff" />
  </linearGradient>
  <path fill="url(#SVGID_1_)" d="M26,32c-1.1,0-2,0.9-2,2s0.9,2,2,2s2-0.9,2-2S27.1,32,26,32z" />
  <linearGradient id="SVGID_2_" x1="18" x2="18" y1="790.062" y2="785.867" gradientTransform="matrix(1 0 0 -1 0 822)" gradientUnits="userSpaceOnUse">
    <stop offset="0" stop-color="#6dc7ff" />
    <stop offset="1" stop-color="#e6abff" />
  </linearGradient>
  <path fill="url(#SVGID_2_)" d="M18,32c-1.1,0-2,0.9-2,2s0.9,2,2,2s2-0.9,2-2S19.1,32,18,32z" />
  <linearGradient id="SVGID_3_" x1="22" x2="22" y1="37.857" y2="41.636" gradientUnits="userSpaceOnUse">
    <stop offset="0" stop-color="#6dc7ff" />
    <stop offset="1" stop-color="#e6abff" />
  </linearGradient>
  <path fill="url(#SVGID_3_)" d="M22,41.4L22,41.4c1.5,0,2.8-1.2,2.8-2.7V38h-5.5v0.7C19.3,40.2,20.5,41.4,22,41.4z" />
  <linearGradient id="SVGID_4_" x1="37.375" x2="37.375" y1="40.877" y2="44.14" gradientUnits="userSpaceOnUse">
    <stop offset="0" stop-color="#6dc7ff" />
    <stop offset="1" stop-color="#e6abff" />
  </linearGradient>
  <path fill="url(#SVGID_4_)" d="M37.4,44L37.4,44c1.3,0,2.4-1.1,2.4-2.4V41H35v0.6C35,42.9,36.1,44,37.4,44z" />
  <linearGradient id="SVGID_5_" x1="30" x2="30" y1="4.872" y2="57.749" gradientUnits="userSpaceOnUse">
    <stop offset="0" stop-color="#1a6dff" />
    <stop offset="1" stop-color="#c822ff" />
  </linearGradient>
  <path fill="url(#SVGID_5_)" d="M51,39.6c0.6-0.7,1-1.6,1-2.6s-0.4-1.9-1-2.6V32c0-1.5-0.3-3-0.8-4.4c-0.5,0.5-1,1-1.7,1.4c0.3,1,0.4,2,0.4,3 v1.1c-0.3-0.1-0.7-0.1-1-0.1h-2c-3.9,0-7-3.1-7-7h-2c0,2-0.8,3.8-2.2,5.1C34,30.4,33.1,30,32,30c0-2.2-0.8-4.3-2-6 c0.8-0.7,1.6-1.3,2.5-1.7c-0.4-0.5-0.7-1.1-1-1.7c-1,0.5-2,1.2-2.8,2C26.9,21,24.6,20,22,20c-5.5,0-10,4.5-10,10c-2.2,0-4,1.8-4,4 s1.8,4,4,4h0.2c0.2,0.9,0.5,1.8,1,2.7C8.7,43.6,6,48.6,6,54v4h48v-2.7c0-3.5-1.1-6.9-3-9.7V39.6z M47.6,41H48c0.3,0,0.7-0.1,1-0.1 v2.2c-0.5-0.5-1-1-1.6-1.4C47.5,41.5,47.5,41.2,47.6,41z M50,37c0,1.1-0.9,2-2,2v-0.9V35C49.1,35,50,35.9,50,37z M38,30.1 c1.5,2.9,4.5,4.9,8,4.9v3.1c0,5.1-4.2,9.3-9.3,9.3h-0.1c-1.2-2.7-3.2-5.1-5.7-6.7c0.4-0.8,0.8-1.7,1-2.7H32c2.2,0,4-1.8,4-4 c0-0.4-0.1-0.8-0.2-1.1C36.7,32.1,37.5,31.2,38,30.1z M34,34c0,1.1-0.9,2-2,2v-4C33.1,32,34,32.9,34,34z M14,30c0-4.4,3.6-8,8-8 s8,3.6,8,8v6c0,4.4-3.6,8-8,8s-8-3.6-8-8V30z M10,34c0-1.1,0.9-2,2-2v4C10.9,36,10,35.1,10,34z M22,46c3.1,0,5.9-1.4,7.7-3.7 c0.6,0.4,1.2,0.8,1.7,1.3C29.4,47,25.9,49,22,49c-3.9,0-7.4-2-9.4-5.4c0.5-0.5,1.1-0.9,1.7-1.3C16.1,44.6,18.9,46,22,46z M34.6,56 H33v-2h-2v2H13v-2h-2v2H8v-2c0-3.3,1.2-6.4,3.2-8.8C13.5,48.8,17.6,51,22,51c4.4,0,8.5-2.2,10.8-5.8c2,2.5,3.2,5.6,3.2,8.8v2H34.6z M52,56h-3v-2h-2v2h-9v-2c0-1.6-0.2-3.2-0.7-4.6c4-0.2,7.4-2.5,9.3-5.8C50,46.5,52,50.8,52,55.3V56z" />
  <linearGradient id="SVGID_6_" x1="46" x2="46" y1="4.872" y2="57.749" gradientUnits="userSpaceOnUse">
    <stop offset="0" stop-color="#1a6dff" />
    <stop offset="1" stop-color="#c822ff" />
  </linearGradient>
  <path fill="url(#SVGID_6_)" d="M54,6H38c-2.8,0-5,2.2-5,5v7c0,2.8,2.2,5,5,5h4.3c0.8,0,1.5,0.7,1.5,1.5c0,0.8-0.7,1.5-1.5,1.5H42v2h3 c2.8,0,5-2.2,5-5h4c2.8,0,5-2.2,5-5v-7C59,8.2,56.8,6,54,6z M57,18c0,1.7-1.3,3-3,3h-4c-1.1,0-2,0.9-2,2c0,1.5-1.1,2.7-2.5,2.9 c0.2-0.4,0.3-0.9,0.3-1.4c0-1.9-1.6-3.5-3.5-3.5H38c-1.7,0-3-1.3-3-3v-7c0-1.7,1.3-3,3-3h16c1.7,0,3,1.3,3,3V18z" />
  <linearGradient id="SVGID_7_" x1="46" x2="46" y1="4.872" y2="57.749" gradientUnits="userSpaceOnUse">
    <stop offset="0" stop-color="#1a6dff" />
    <stop offset="1" stop-color="#c822ff" />
  </linearGradient>
  <rect width="16" height="2" x="38" y="12" fill="url(#SVGID_7_)" />
  <linearGradient id="SVGID_8_" x1="46" x2="46" y1="4.872" y2="57.749" gradientUnits="userSpaceOnUse">
    <stop offset="0" stop-color="#1a6dff" />
    <stop offset="1" stop-color="#c822ff" />
  </linearGradient>
  <rect width="6" height="2" x="43" y="16" fill="url(#SVGID_8_)" />
</svg>