<svg xmlns="http://www.w3.org/2000/svg" viewBox="0 0 48 48">
  <path d="M10.5 5C6.92 5 4 7.92 4 11.5L4 30.5C4 34.08 6.92 37 10.5 37L22.150391 37C22.050391 36.35 22 35.68 22 35C22 34.66 22.010781 34.33 22.050781 34L10.5 34C8.57 34 7 32.43 7 30.5L7 16.015625L23.287109 24.820312 A 1.50015 1.50015 0 0 0 24.712891 24.820312L41 16.015625L41 23.470703C42.1 24.040703 43.11 24.770859 44 25.630859L44 11.5C44 7.92 41.08 5 37.5 5L10.5 5 z M 10.5 8L37.5 8C39.43 8 41 9.57 41 11.5L41 12.605469L24 21.794922L7 12.605469L7 11.5C7 9.57 8.57 8 10.5 8 z M 35 24C28.925 24 24 28.925 24 35C24 41.075 28.925 46 35 46C41.075 46 46 41.075 46 35C46 28.925 41.075 24 35 24 z M 35.916016 29.003906C36.150906 28.98375 36.387484 29.048453 36.583984 29.189453C36.845984 29.377453 37 29.679 37 30L37 40C37 40.553 36.552 41 36 41C35.448 41 35 40.553 35 40L35 31.388672L33.316406 31.949219C32.789406 32.126219 32.225781 31.840406 32.050781 31.316406C31.875781 30.792406 32.159594 30.226734 32.683594 30.052734L35.683594 29.052734C35.759844 29.026734 35.837719 29.010625 35.916016 29.003906 z" fill="#080808" />
</svg>