<svg xmlns="http://www.w3.org/2000/svg" viewBox="0 0 24 24">
  <path d="M3 4C1.976 4 1.1404375 4.772625 1.0234375 5.765625L11 12L20.976562 5.765625C20.859563 4.772625 20.024 4 19 4L3 4 z M 1 7.7519531L1 18C1 19.105 1.895 20 3 20L12.757812 20C11.653813 18.895 11.653813 17.105 12.757812 16L13 15.757812C14.105 14.652812 15.895 14.652812 17 15.757812L18 16.757812L21 13.757812L21 7.7519531L11.529297 13.669922C11.205297 13.872922 10.794703 13.872922 10.470703 13.669922L1 7.7519531 z M 22.966797 15.033203C22.710922 15.033203 22.454766 15.130672 22.259766 15.326172L18 19.585938L15.707031 17.292969C15.316031 16.901969 14.682969 16.901969 14.292969 17.292969C13.901969 17.683969 13.902969 18.317031 14.292969 18.707031L17.292969 21.707031C17.683969 22.098031 18.317031 22.098031 18.707031 21.707031L23.673828 16.740234C24.063828 16.350234 24.063828 15.717172 23.673828 15.326172C23.478328 15.130672 23.222672 15.033203 22.966797 15.033203 z" fill="#080808" />
</svg>